<?xml version="1.0" standalone="no"?>
<!DOCTYPE svg PUBLIC "-//W3C//DTD SVG 20010904//EN"
 "http://www.w3.org/TR/2001/REC-SVG-20010904/DTD/svg10.dtd">
<svg version="1.0" xmlns="http://www.w3.org/2000/svg"
 width="500.000000pt" height="500.000000pt" viewBox="0 0 500.000000 500.000000"
 preserveAspectRatio="xMidYMid meet">

<g transform="translate(0.000000,500.000000) scale(0.100000,-0.100000)"
fill="#000000" stroke="none">
<path d="M566 3179 c-121 -20 -235 -108 -293 -227 -25 -51 -28 -67 -28 -163 0
-100 2 -108 34 -172 53 -105 163 -193 263 -212 43 -8 55 -36 27 -61 -24 -22
-20 -37 11 -44 24 -6 24 -7 25 -135 0 -124 1 -133 32 -200 56 -123 53 -226 -7
-287 -16 -15 -23 -28 -16 -28 36 0 76 87 76 166 0 42 -9 79 -37 148 -34 81
-38 101 -38 176 0 102 9 140 33 140 10 0 28 7 40 16 22 15 22 15 3 42 -16 23
-17 30 -6 45 7 9 17 17 24 17 6 0 40 13 76 29 81 37 153 104 196 184 33 60 34
65 34 177 0 107 -2 119 -28 168 -85 161 -253 250 -421 221z"/>
<path d="M1610 2631 l0 -241 55 0 55 0 -2 238 -3 237 -52 3 -53 3 0 -240z"/>
<path d="M2197 2864 c-4 -4 -7 -112 -7 -241 l0 -233 60 0 c54 0 60 2 60 21 l0
20 26 -20 c36 -28 117 -29 162 -1 41 25 71 89 72 150 0 54 -33 125 -71 153
-39 28 -106 32 -151 9 l-37 -19 -3 81 -3 81 -50 3 c-28 2 -54 0 -58 -4z m242
-240 c45 -58 9 -147 -59 -147 -45 0 -70 32 -70 89 0 55 26 84 74 84 25 0 40
-7 55 -26z"/>
<path d="M1267 2826 c-156 -58 -204 -237 -96 -359 21 -25 58 -52 81 -61 60
-25 154 -22 225 6 l58 23 3 93 3 92 -51 0 -50 0 0 -60 0 -59 -41 -12 c-51 -16
-112 3 -141 42 -44 59 -29 157 30 195 38 25 110 23 155 -3 l36 -22 31 35 c17
19 28 39 25 45 -28 45 -193 73 -268 45z"/>
<path d="M3378 2615 l-96 -225 58 0 58 0 16 40 16 40 99 0 99 0 16 -40 16 -40
60 0 60 0 -17 42 c-9 23 -51 123 -93 222 l-77 181 -59 3 -59 3 -97 -226z m182
33 c13 -35 25 -69 27 -75 4 -10 -11 -13 -56 -13 -34 0 -61 2 -61 4 0 15 54
146 60 146 4 0 18 -28 30 -62z"/>
<path d="M1875 2721 c-98 -45 -132 -144 -82 -241 31 -62 82 -90 166 -90 134 0
214 97 181 220 -29 106 -158 160 -265 111z m125 -81 c45 -24 46 -116 2 -150
-34 -27 -59 -25 -93 9 -33 33 -37 67 -14 111 20 39 64 52 105 30z"/>
<path d="M2695 2721 c-98 -45 -132 -144 -82 -241 31 -62 82 -90 166 -90 134 0
214 97 181 220 -29 106 -158 160 -265 111z m125 -81 c45 -24 46 -116 2 -150
-34 -27 -59 -25 -93 9 -33 33 -37 67 -14 111 20 39 64 52 105 30z"/>
<path d="M3064 2726 c-42 -18 -64 -52 -64 -97 0 -48 29 -76 106 -103 45 -16
59 -26 59 -41 0 -29 -44 -31 -101 -6 -26 12 -48 20 -49 19 -1 -2 -10 -18 -19
-36 l-17 -33 43 -19 c53 -24 156 -27 198 -5 61 32 79 102 38 149 -13 14 -52
36 -88 48 -41 15 -65 29 -65 38 0 21 55 24 99 6 l37 -15 19 32 c19 30 19 33 3
45 -44 32 -145 41 -199 18z"/>
<path d="M3817 2733 c-4 -3 -7 -109 -7 -235 l0 -228 55 0 55 0 0 80 0 80 33
-20 c42 -26 119 -27 161 -1 89 56 100 212 20 288 -45 42 -111 53 -163 27 -20
-10 -39 -20 -43 -22 -5 -2 -8 6 -8 17 0 18 -6 21 -48 21 -27 0 -52 -3 -55 -7z
m223 -93 c23 -13 43 -70 35 -103 -15 -57 -86 -80 -126 -41 -50 50 -22 154 42
154 16 0 39 -4 49 -10z"/>
<path d="M4240 2505 l0 -235 55 0 55 0 0 81 0 80 26 -20 c38 -30 119 -29 165
2 52 34 71 79 67 159 -4 71 -20 103 -70 141 -38 28 -105 32 -150 9 -35 -18
-37 -18 -41 -1 -4 15 -15 19 -56 19 l-51 0 0 -235z m239 119 c55 -70 -4 -175
-80 -143 -36 14 -49 36 -49 82 0 49 33 87 75 87 24 0 39 -7 54 -26z"/>
</g>
</svg>
